<?xml version="1.0" encoding="utf-8"?>
<!-- Generator: Adobe Illustrator 22.1.0, SVG Export Plug-In . SVG Version: 6.00 Build 0)  -->
<svg version="1.1" id="Layer_1" xmlns="http://www.w3.org/2000/svg" xmlns:xlink="http://www.w3.org/1999/xlink" x="0px" y="0px"
	 viewBox="0 0 348 152" style="enable-background:new 0 0 348 152;" xml:space="preserve">
<style type="text/css">
	.st0{fill:url(#SVGID_1_);}
	.st1{fill:url(#SVGID_2_);}
	.st2{fill:url(#SVGID_3_);}
	.st3{fill:url(#SVGID_4_);}
	.st4{fill:url(#SVGID_5_);}
	.st5{fill:url(#SVGID_6_);}
</style>
<g>
	<path d="M133.8,57.6c0-1.3,1.3-2.4,2.8-2.4c1.6,0,2.8,1.1,2.8,2.4v25.8c0,1.3-1.3,2.4-2.8,2.4c-1.6,0-2.8-1.1-2.8-2.4V57.6z"/>
	<path d="M144.3,57.9c0-1.5,1.6-2.6,3.5-2.6c1.4,0,2.4,0.5,3,1.4l8.7,10.9l8.8-11c0.7-0.8,1.7-1.3,3-1.3c1.9,0,3.4,1.2,3.4,2.6v25.6
		c0,1.3-1.3,2.4-2.8,2.4s-2.8-1.1-2.8-2.4v-19h-0.1l-7,9.1c-0.6,0.8-1.4,1.2-2.5,1.2c-1,0-1.8-0.4-2.4-1.2l-6.9-9.1H150v19
		c0,1.3-1.3,2.4-2.8,2.4c-1.6,0-2.8-1.1-2.8-2.4V57.9z"/>
	<path d="M192.7,70.5c1.3,0,2.4-0.5,3.4-1.4s1.4-2,1.4-3.4c0-1.3-0.5-2.4-1.4-3.4s-2-1.4-3.4-1.4h-7.5v22.4c0,1.3-1.3,2.4-2.8,2.4
		c-1.6,0-2.8-1.1-2.8-2.4V57.9c0-1.3,1.3-2.4,2.8-2.4h10.4c2.9,0,5.4,1,7.5,3s3.1,4.4,3.1,7.3c0,2.9-1,5.4-3.1,7.3s-4.6,2.9-7.5,2.9
		h-2.8c-1.3,0-2.4-1.3-2.4-2.8s1.1-2.7,2.4-2.7H192.7z"/>
	<path d="M210.7,81.7c-3.1-3-4.7-6.7-4.7-11.1c0-4.4,1.6-8.2,4.7-11.1s6.9-4.5,11.4-4.5c4.4,0,8.2,1.5,11.3,4.5
		c3.2,3,4.7,6.7,4.7,11.1c0,4.4-1.6,8.2-4.7,11.1c-3.1,3-6.9,4.5-11.3,4.5C217.6,86.2,213.8,84.7,210.7,81.7z M229.3,63.3
		c-2-2-4.4-3-7.2-3c-2.8,0-5.2,1-7.2,3c-2,2-3,4.4-3,7.2c0,2.8,1,5.2,3,7.2c2,2,4.4,3,7.2,3c2.8,0,5.3-1,7.2-3c2-2,3-4.4,3-7.3
		C232.3,67.7,231.3,65.3,229.3,63.3z"/>
	<path d="M241.9,57.8c0-1.4,1.5-2.6,3.4-2.6c1.5,0,2.6,0.6,3.1,1.7l11.3,18.6h0.1l0-17.9c0-1.3,1.3-2.4,2.8-2.4s2.8,1.1,2.8,2.4
		v25.6c0,1.4-1.5,2.6-3.4,2.6c-1.6,0-2.6-0.5-3.1-1.6l-11.3-18.7h-0.1l0,17.9c0,1.3-1.3,2.4-2.8,2.4c-1.6,0-2.8-1.1-2.8-2.4V57.8z"
		/>
	<path d="M274,81.7c-3.1-3-4.7-6.7-4.7-11.1c0-4.4,1.6-8.2,4.7-11.1s6.9-4.5,11.4-4.5c4.4,0,8.2,1.5,11.3,4.5
		c3.2,3,4.7,6.7,4.7,11.1c0,4.4-1.6,8.2-4.7,11.1c-3.1,3-6.9,4.5-11.3,4.5C280.9,86.2,277.1,84.7,274,81.7z M292.6,63.3
		c-2-2-4.4-3-7.2-3c-2.8,0-5.2,1-7.2,3c-2,2-3,4.4-3,7.2c0,2.8,1,5.2,3,7.2c2,2,4.4,3,7.2,3c2.8,0,5.3-1,7.2-3c2-2,3-4.4,3-7.3
		C295.6,67.7,294.6,65.3,292.6,63.3z"/>
</g>
<g>
	<path d="M141.8,99.2c0,0.6-0.1,1.1-0.3,1.6c-0.2,0.5-0.5,0.9-0.8,1.3c-0.3,0.4-0.7,0.6-1.2,0.8c-0.5,0.2-1,0.3-1.5,0.3
		c-0.6,0-1.1-0.1-1.5-0.3c-0.5-0.2-0.9-0.5-1.2-0.8c-0.3-0.4-0.6-0.8-0.8-1.3c-0.2-0.5-0.3-1-0.3-1.6c0-0.6,0.1-1.1,0.3-1.6
		c0.2-0.5,0.5-0.9,0.8-1.3c0.3-0.4,0.7-0.6,1.2-0.8c0.5-0.2,1-0.3,1.5-0.3c0.5,0,1.1,0.1,1.5,0.3c0.5,0.2,0.9,0.5,1.2,0.8
		c0.3,0.4,0.6,0.8,0.8,1.3C141.7,98.1,141.8,98.7,141.8,99.2z M141,99.2c0-0.5-0.1-0.9-0.2-1.3c-0.1-0.4-0.4-0.8-0.6-1
		c-0.3-0.3-0.6-0.5-0.9-0.7s-0.8-0.2-1.2-0.2s-0.8,0.1-1.2,0.2c-0.4,0.2-0.7,0.4-0.9,0.7c-0.3,0.3-0.5,0.6-0.6,1
		c-0.1,0.4-0.2,0.8-0.2,1.3c0,0.5,0.1,0.9,0.2,1.3c0.1,0.4,0.4,0.8,0.6,1s0.6,0.5,0.9,0.7c0.4,0.2,0.8,0.3,1.2,0.3s0.8-0.1,1.2-0.3
		c0.4-0.2,0.7-0.4,0.9-0.7s0.5-0.6,0.6-1C140.9,100.1,141,99.7,141,99.2z"/>
	<path d="M148.9,97.7c0,0.3-0.1,0.7-0.2,0.9c-0.1,0.3-0.3,0.5-0.5,0.8c-0.2,0.2-0.5,0.4-0.9,0.5s-0.7,0.2-1.2,0.2
		c-0.4,0-0.8,0-1-0.1c-0.2,0-0.4-0.1-0.4-0.1v3H144v-7.1c0-0.1,0-0.2,0.1-0.3c0.1-0.1,0.2-0.1,0.4-0.1h1.9c0.2,0,0.3,0,0.5,0
		c0.2,0,0.3,0,0.4,0.1c0.5,0.1,1,0.4,1.2,0.8C148.8,96.7,148.9,97.1,148.9,97.7z M148.1,97.7c0-0.4-0.1-0.7-0.3-1s-0.5-0.5-0.9-0.5
		c-0.2,0-0.5-0.1-0.9-0.1h-1.4v3.2c0.1,0,0.2,0.1,0.4,0.1c0.2,0,0.5,0.1,0.7,0.1c0.8,0,1.4-0.2,1.7-0.5S148.1,98.3,148.1,97.7z"/>
	<path d="M155,98.8c0.1,0,0.2,0,0.3,0.1c0.1,0.1,0.1,0.1,0.1,0.3c0,0.1,0,0.2,0,0.2c0,0.1,0,0.1-0.1,0.1h-3.7v2.9h3.9v0.7h-4.6v-7.1
		c0-0.1,0-0.2,0.1-0.3c0.1-0.1,0.2-0.1,0.4-0.1h3.9c0.1,0,0.2,0,0.3,0.1c0.1,0.1,0.1,0.1,0.1,0.3c0,0.1,0,0.2,0,0.2
		c0,0.1,0,0.1-0.1,0.1h-3.8v2.6H155z"/>
	<path d="M162.8,103c-0.2-0.3-0.4-0.6-0.7-1c-0.2-0.4-0.5-0.8-0.8-1.2c-0.3-0.4-0.5-0.9-0.8-1.3c-0.3-0.4-0.6-0.9-0.8-1.3
		c-0.3-0.4-0.5-0.8-0.7-1.1c-0.2-0.3-0.4-0.6-0.6-0.8v6.7h-0.8v-7.1c0-0.1,0.1-0.2,0.2-0.3c0.1-0.1,0.2-0.1,0.4-0.1
		c0.1,0,0.3,0,0.4,0.1c0.1,0.1,0.2,0.1,0.3,0.1c0.1,0.2,0.3,0.4,0.5,0.6c0.2,0.3,0.4,0.6,0.6,0.9c0.2,0.3,0.5,0.7,0.7,1.1
		c0.3,0.4,0.5,0.8,0.8,1.2s0.5,0.8,0.8,1.2c0.3,0.4,0.5,0.8,0.7,1.1v-6.1c0-0.1,0-0.2,0.1-0.3c0.1-0.1,0.2-0.1,0.3-0.1
		c0.1,0,0.2,0,0.2,0c0.1,0,0.1,0,0.1,0.1v7.4H162.8z"/>
	<path d="M171.6,95.3c0.3,0,0.6,0,0.8,0.1c0.2,0,0.5,0.1,0.6,0.2c0.2,0.1,0.3,0.1,0.4,0.2c0.1,0.1,0.2,0.1,0.3,0.2
		c0.1,0.1,0.2,0.2,0.2,0.2s0.1,0.1,0.1,0.2c0,0.1,0,0.2-0.1,0.3c-0.1,0.1-0.1,0.2-0.2,0.2c-0.1-0.1-0.2-0.2-0.3-0.3
		s-0.3-0.2-0.4-0.3c-0.2-0.1-0.4-0.1-0.6-0.2c-0.2-0.1-0.5-0.1-0.8-0.1c-0.3,0-0.6,0-0.8,0.1c-0.2,0.1-0.4,0.2-0.6,0.3
		c-0.2,0.1-0.3,0.3-0.3,0.4c-0.1,0.2-0.1,0.4-0.1,0.5c0,0.2,0,0.4,0.1,0.6s0.2,0.3,0.3,0.4c0.1,0.1,0.3,0.2,0.5,0.3
		c0.2,0.1,0.4,0.2,0.7,0.2l0.9,0.2c0.7,0.2,1.2,0.4,1.6,0.8c0.4,0.3,0.5,0.7,0.5,1.3c0,0.3,0,0.6-0.1,0.9c-0.1,0.3-0.3,0.5-0.5,0.7
		s-0.5,0.3-0.8,0.5c-0.3,0.1-0.8,0.2-1.2,0.2c-0.4,0-0.8,0-1.1-0.1c-0.3-0.1-0.6-0.2-0.8-0.2c-0.2-0.1-0.4-0.2-0.6-0.3
		c-0.2-0.1-0.3-0.2-0.3-0.2l0.4-0.5c0.1,0.1,0.2,0.1,0.3,0.2c0.1,0.1,0.3,0.2,0.5,0.3c0.2,0.1,0.4,0.2,0.7,0.2
		c0.3,0.1,0.6,0.1,0.9,0.1c0.6,0,1.1-0.1,1.5-0.4s0.5-0.6,0.5-1.1c0-0.2,0-0.4-0.1-0.6s-0.2-0.3-0.4-0.4c-0.1-0.1-0.3-0.2-0.5-0.3
		c-0.2-0.1-0.4-0.1-0.6-0.2l-1-0.3c-0.3-0.1-0.6-0.2-0.8-0.3c-0.3-0.1-0.5-0.3-0.7-0.4s-0.3-0.4-0.5-0.6c-0.1-0.2-0.2-0.5-0.2-0.8
		c0-0.2,0-0.5,0.1-0.7c0.1-0.2,0.2-0.5,0.4-0.7c0.2-0.2,0.5-0.4,0.8-0.5C170.7,95.3,171.1,95.3,171.6,95.3z"/>
	<path d="M183.7,99.2c0,0.6-0.1,1.1-0.3,1.6s-0.5,0.9-0.8,1.3c-0.3,0.4-0.7,0.6-1.2,0.8c-0.5,0.2-1,0.3-1.5,0.3
		c-0.6,0-1.1-0.1-1.5-0.3c-0.5-0.2-0.9-0.5-1.2-0.8c-0.3-0.4-0.6-0.8-0.8-1.3c-0.2-0.5-0.3-1-0.3-1.6c0-0.6,0.1-1.1,0.3-1.6
		c0.2-0.5,0.5-0.9,0.8-1.3c0.3-0.4,0.7-0.6,1.2-0.8c0.5-0.2,1-0.3,1.5-0.3c0.5,0,1.1,0.1,1.5,0.3c0.5,0.2,0.9,0.5,1.2,0.8
		c0.3,0.4,0.6,0.8,0.8,1.3C183.6,98.1,183.7,98.7,183.7,99.2z M182.9,99.2c0-0.5-0.1-0.9-0.2-1.3c-0.1-0.4-0.4-0.8-0.6-1
		c-0.3-0.3-0.6-0.5-0.9-0.7s-0.8-0.2-1.2-0.2s-0.8,0.1-1.2,0.2c-0.4,0.2-0.7,0.4-0.9,0.7c-0.3,0.3-0.5,0.6-0.6,1
		c-0.1,0.4-0.2,0.8-0.2,1.3c0,0.5,0.1,0.9,0.2,1.3c0.1,0.4,0.4,0.8,0.6,1s0.6,0.5,0.9,0.7c0.4,0.2,0.8,0.3,1.2,0.3s0.8-0.1,1.2-0.3
		c0.4-0.2,0.7-0.4,0.9-0.7s0.5-0.6,0.6-1C182.8,100.1,182.9,99.7,182.9,99.2z"/>
	<path d="M191.5,95.8c0-0.1,0-0.2,0.1-0.3s0.2-0.1,0.3-0.1c0.1,0,0.1,0,0.2,0c0.1,0,0.1,0,0.1,0.1v4.1c0,1.1-0.3,2-0.8,2.6
		c-0.5,0.6-1.3,0.9-2.5,0.9s-1.9-0.3-2.5-0.9c-0.5-0.6-0.8-1.5-0.8-2.6v-3.8c0-0.1,0-0.2,0.1-0.3s0.2-0.1,0.3-0.1c0.1,0,0.1,0,0.2,0
		c0.1,0,0.1,0,0.1,0.1v4c0,0.5,0,0.9,0.1,1.3c0.1,0.4,0.2,0.7,0.4,0.9s0.4,0.4,0.8,0.6s0.7,0.2,1.2,0.2c0.9,0,1.5-0.2,1.9-0.7
		s0.6-1.2,0.6-2.2V95.8z"/>
	<path d="M196.7,100c-0.4,0-0.7,0-0.9,0c-0.2,0-0.4,0-0.4-0.1v3.1h-0.7v-7.1c0-0.1,0-0.2,0.1-0.3c0.1-0.1,0.2-0.1,0.4-0.1h1.6
		c0.4,0,0.7,0,1,0.1c0.3,0.1,0.5,0.2,0.8,0.3c0.2,0.1,0.4,0.3,0.5,0.5c0.1,0.2,0.2,0.4,0.3,0.6c0.1,0.2,0.1,0.5,0.1,0.7
		c0,0.5-0.1,0.9-0.4,1.3c-0.3,0.4-0.6,0.6-1.1,0.8c0.2,0.2,0.4,0.5,0.6,0.8c0.2,0.3,0.4,0.6,0.6,0.9c0.2,0.3,0.4,0.6,0.5,0.9
		c0.2,0.3,0.3,0.5,0.4,0.7h-0.9c-0.1-0.2-0.2-0.4-0.3-0.6s-0.3-0.5-0.5-0.8c-0.2-0.3-0.4-0.6-0.6-0.9c-0.2-0.3-0.4-0.5-0.6-0.8
		c-0.1,0-0.2,0-0.2,0C196.9,100,196.8,100,196.7,100z M198.7,97.7c0-0.4-0.1-0.7-0.2-1c-0.2-0.3-0.4-0.4-0.8-0.5
		c-0.1,0-0.3-0.1-0.4-0.1c-0.2,0-0.3,0-0.5,0h-1.3v3.2c0,0,0.2,0,0.4,0.1c0.2,0,0.5,0,0.8,0c0.7,0,1.2-0.2,1.6-0.5
		C198.5,98.6,198.7,98.2,198.7,97.7z"/>
	<path d="M207.1,95.8c0.1,0.1,0.2,0.2,0.2,0.2c0,0.1,0.1,0.1,0.1,0.2c0,0.1,0,0.2-0.1,0.3c-0.1,0.1-0.2,0.2-0.2,0.2
		c-0.1-0.1-0.2-0.2-0.3-0.3s-0.3-0.2-0.5-0.3s-0.4-0.1-0.6-0.2c-0.2-0.1-0.5-0.1-0.7-0.1c-0.4,0-0.8,0.1-1.2,0.2
		c-0.4,0.2-0.7,0.4-0.9,0.7c-0.3,0.3-0.5,0.6-0.6,1c-0.2,0.4-0.2,0.9-0.2,1.4c0,0.5,0.1,1,0.2,1.4s0.4,0.7,0.7,1
		c0.3,0.3,0.6,0.5,1,0.6c0.4,0.1,0.8,0.2,1.2,0.2c0.2,0,0.5,0,0.7-0.1c0.2,0,0.4-0.1,0.6-0.1c0.2-0.1,0.3-0.1,0.4-0.2
		c0.1-0.1,0.2-0.1,0.3-0.2l0.3,0.6c-0.1,0.1-0.2,0.1-0.4,0.2s-0.3,0.1-0.5,0.2c-0.2,0.1-0.4,0.1-0.7,0.2s-0.5,0.1-0.8,0.1
		c-0.5,0-1-0.1-1.5-0.3c-0.5-0.2-0.9-0.4-1.2-0.8c-0.4-0.3-0.6-0.8-0.8-1.2c-0.2-0.5-0.3-1-0.3-1.7c0-0.6,0.1-1.2,0.3-1.7
		c0.2-0.5,0.5-0.9,0.8-1.3c0.3-0.3,0.8-0.6,1.2-0.8s1-0.3,1.5-0.3c0.3,0,0.5,0,0.8,0.1c0.2,0,0.4,0.1,0.6,0.1s0.3,0.1,0.5,0.2
		C206.9,95.7,207,95.8,207.1,95.8z"/>
	<path d="M213.4,98.8c0.1,0,0.2,0,0.3,0.1c0.1,0.1,0.1,0.1,0.1,0.3c0,0.1,0,0.2,0,0.2c0,0.1,0,0.1-0.1,0.1H210v2.9h3.9v0.7h-4.6
		v-7.1c0-0.1,0-0.2,0.1-0.3s0.2-0.1,0.4-0.1h3.9c0.1,0,0.2,0,0.3,0.1c0.1,0.1,0.1,0.1,0.1,0.3c0,0.1,0,0.2,0,0.2
		c0,0.1,0,0.1-0.1,0.1H210v2.6H213.4z"/>
	<path d="M218.7,96.1c-0.1,0-0.2,0-0.3-0.1c-0.1-0.1-0.1-0.1-0.1-0.3c0-0.1,0-0.2,0-0.2c0-0.1,0-0.1,0.1-0.1h5.6
		c0.1,0,0.2,0,0.3,0.1c0.1,0.1,0.1,0.1,0.1,0.3c0,0.1,0,0.2,0,0.2s0,0.1-0.1,0.1h-2.6v6.9h-0.8v-6.9H218.7z"/>
	<path d="M223.8,103c0.2-0.6,0.4-1.2,0.7-1.8s0.5-1.2,0.7-1.8c0.2-0.6,0.5-1.2,0.7-1.8s0.5-1.1,0.7-1.6c0.1-0.3,0.3-0.5,0.4-0.6
		c0.1-0.1,0.3-0.2,0.5-0.2c0.2,0,0.3,0,0.4,0.1c0.1,0.1,0.2,0.1,0.2,0.2c0.1,0.2,0.3,0.5,0.5,1c0.2,0.4,0.4,0.9,0.6,1.4
		s0.4,1,0.6,1.6c0.2,0.5,0.4,1,0.6,1.5s0.3,0.9,0.5,1.3c0.1,0.4,0.2,0.6,0.3,0.8h-0.8c0-0.1-0.1-0.2-0.2-0.4
		c-0.1-0.2-0.1-0.4-0.2-0.6c-0.1-0.2-0.2-0.5-0.2-0.7c-0.1-0.2-0.2-0.4-0.2-0.6h-4c-0.2,0.5-0.4,0.9-0.5,1.3c-0.2,0.4-0.3,0.7-0.4,1
		H223.8z M227.5,95.9c-0.1,0.3-0.3,0.5-0.4,0.9c-0.1,0.3-0.3,0.7-0.4,1c-0.2,0.4-0.3,0.7-0.5,1.1c-0.2,0.4-0.3,0.8-0.5,1.1h3.5
		c-0.1-0.4-0.3-0.7-0.4-1.2c-0.2-0.4-0.3-0.8-0.5-1.2c-0.2-0.4-0.3-0.7-0.5-1S227.5,96.1,227.5,95.9z"/>
	<path d="M236.2,95.9c-0.4,0-0.8,0.1-1.2,0.2c-0.4,0.2-0.7,0.4-1,0.7c-0.3,0.3-0.5,0.6-0.7,1c-0.2,0.4-0.2,0.9-0.2,1.4
		c0,0.6,0.1,1.1,0.3,1.5s0.4,0.8,0.7,1s0.7,0.5,1.1,0.6c0.4,0.1,0.9,0.2,1.4,0.2c0.4,0,0.7,0,0.9,0s0.4-0.1,0.4-0.1v-2.7h-1.7
		c-0.1,0-0.2,0-0.3-0.1c-0.1-0.1-0.1-0.1-0.1-0.3c0-0.1,0-0.2,0-0.2c0-0.1,0-0.1,0.1-0.1h2.2c0.2,0,0.3,0,0.4,0.1
		c0.1,0.1,0.1,0.2,0.1,0.3v3.6c-0.1,0-0.3,0-0.7,0.1c-0.4,0.1-0.9,0.1-1.5,0.1c-0.6,0-1.2-0.1-1.7-0.3c-0.5-0.2-1-0.4-1.3-0.8
		s-0.7-0.7-0.9-1.2s-0.3-1.1-0.3-1.7c0-0.6,0.1-1.2,0.3-1.6c0.2-0.5,0.5-0.9,0.8-1.3s0.8-0.6,1.3-0.8s1-0.3,1.6-0.3
		c0.3,0,0.5,0,0.8,0.1s0.5,0.1,0.6,0.1c0.2,0.1,0.3,0.1,0.5,0.2s0.2,0.1,0.3,0.2c0.1,0.1,0.2,0.2,0.2,0.2c0,0.1,0,0.1,0,0.2
		c0,0.1,0,0.2-0.1,0.3c-0.1,0.1-0.2,0.2-0.2,0.2c-0.1-0.1-0.2-0.2-0.3-0.3s-0.3-0.2-0.5-0.2c-0.2-0.1-0.4-0.1-0.6-0.2
		C236.7,95.9,236.5,95.9,236.2,95.9z"/>
	<path d="M247.9,100.6c0.1-0.1,0.1-0.3,0.3-0.5c0.1-0.2,0.3-0.5,0.4-0.8s0.3-0.6,0.5-1s0.3-0.7,0.5-1s0.3-0.6,0.4-0.8
		c0.1-0.2,0.2-0.4,0.2-0.5c0-0.1,0.1-0.1,0.1-0.2c0-0.1,0.1-0.1,0.2-0.2c0.1-0.1,0.1-0.1,0.2-0.1c0.1,0,0.2-0.1,0.3-0.1
		c0.1,0,0.3,0,0.3,0.1c0.1,0,0.1,0.1,0.2,0.1c0.1,1.3,0.1,2.5,0.2,3.7c0.1,1.2,0.1,2.4,0.2,3.7h-0.7c0-0.2,0-0.5,0-0.9
		s0-0.8-0.1-1.2s0-0.9-0.1-1.3s-0.1-0.9-0.1-1.3c0-0.4,0-0.8-0.1-1.2c0-0.4,0-0.6,0-0.9c0,0.1-0.1,0.3-0.2,0.5s-0.3,0.5-0.4,0.9
		s-0.3,0.7-0.5,1.1s-0.4,0.7-0.5,1.1c-0.2,0.3-0.3,0.7-0.5,0.9s-0.2,0.5-0.3,0.6h-0.7c-0.1-0.1-0.2-0.3-0.3-0.6s-0.2-0.5-0.4-0.8
		c-0.1-0.3-0.3-0.6-0.5-1s-0.3-0.7-0.5-1s-0.3-0.7-0.5-1c-0.2-0.3-0.3-0.6-0.4-0.8c0,0.5-0.1,1.1-0.1,1.6c0,0.6-0.1,1.1-0.1,1.7
		c0,0.6-0.1,1.2-0.1,1.7s-0.1,1.1-0.1,1.6H244c0.1-1.2,0.1-2.3,0.2-3.5c0.1-1.2,0.1-2.4,0.2-3.5c0-0.2,0.1-0.3,0.2-0.4
		c0.1-0.1,0.2-0.1,0.4-0.1c0.3,0,0.6,0.1,0.7,0.4c0,0.1,0.1,0.2,0.2,0.4c0.1,0.2,0.2,0.5,0.4,0.8c0.2,0.3,0.3,0.6,0.5,1
		c0.2,0.4,0.3,0.7,0.5,1c0.2,0.3,0.3,0.6,0.4,0.9C247.8,100.2,247.9,100.4,247.9,100.6z"/>
	<path d="M253.4,103c0.2-0.6,0.4-1.2,0.7-1.8s0.5-1.2,0.7-1.8c0.2-0.6,0.5-1.2,0.7-1.8s0.5-1.1,0.7-1.6c0.1-0.3,0.3-0.5,0.4-0.6
		c0.1-0.1,0.3-0.2,0.5-0.2c0.2,0,0.3,0,0.4,0.1c0.1,0.1,0.2,0.1,0.2,0.2c0.1,0.2,0.3,0.5,0.5,1c0.2,0.4,0.4,0.9,0.6,1.4
		s0.4,1,0.6,1.6c0.2,0.5,0.4,1,0.6,1.5s0.3,0.9,0.5,1.3c0.1,0.4,0.2,0.6,0.3,0.8h-0.8c0-0.1-0.1-0.2-0.2-0.4
		c-0.1-0.2-0.1-0.4-0.2-0.6c-0.1-0.2-0.2-0.5-0.2-0.7c-0.1-0.2-0.2-0.4-0.2-0.6h-4c-0.2,0.5-0.4,0.9-0.5,1.3c-0.2,0.4-0.3,0.7-0.4,1
		H253.4z M257,95.9c-0.1,0.3-0.3,0.5-0.4,0.9c-0.1,0.3-0.3,0.7-0.4,1c-0.2,0.4-0.3,0.7-0.5,1.1c-0.2,0.4-0.3,0.8-0.5,1.1h3.5
		c-0.1-0.4-0.3-0.7-0.4-1.2c-0.2-0.4-0.3-0.8-0.5-1.2c-0.2-0.4-0.3-0.7-0.5-1S257.1,96.1,257,95.9z"/>
	<path d="M267.5,103c-0.2-0.3-0.4-0.6-0.7-1c-0.2-0.4-0.5-0.8-0.8-1.2c-0.3-0.4-0.5-0.9-0.8-1.3c-0.3-0.4-0.6-0.9-0.8-1.3
		c-0.3-0.4-0.5-0.8-0.7-1.1c-0.2-0.3-0.4-0.6-0.6-0.8v6.7h-0.8v-7.1c0-0.1,0.1-0.2,0.2-0.3c0.1-0.1,0.2-0.1,0.4-0.1
		c0.1,0,0.3,0,0.4,0.1c0.1,0.1,0.2,0.1,0.3,0.1c0.1,0.2,0.3,0.4,0.5,0.6c0.2,0.3,0.4,0.6,0.6,0.9c0.2,0.3,0.5,0.7,0.7,1.1
		c0.3,0.4,0.5,0.8,0.8,1.2c0.3,0.4,0.5,0.8,0.8,1.2c0.3,0.4,0.5,0.8,0.7,1.1v-6.1c0-0.1,0-0.2,0.1-0.3s0.2-0.1,0.3-0.1
		c0.1,0,0.2,0,0.2,0c0.1,0,0.1,0,0.1,0.1v7.4H267.5z"/>
	<path d="M270.1,103c0.2-0.6,0.4-1.2,0.7-1.8s0.5-1.2,0.7-1.8s0.5-1.2,0.7-1.8s0.5-1.1,0.7-1.6c0.1-0.3,0.3-0.5,0.4-0.6
		c0.1-0.1,0.3-0.2,0.5-0.2c0.2,0,0.3,0,0.4,0.1c0.1,0.1,0.2,0.1,0.2,0.2c0.1,0.2,0.3,0.5,0.5,1c0.2,0.4,0.4,0.9,0.6,1.4
		s0.4,1,0.6,1.6c0.2,0.5,0.4,1,0.6,1.5c0.2,0.5,0.3,0.9,0.5,1.3c0.1,0.4,0.2,0.6,0.3,0.8h-0.8c0-0.1-0.1-0.2-0.2-0.4
		c-0.1-0.2-0.1-0.4-0.2-0.6c-0.1-0.2-0.2-0.5-0.2-0.7c-0.1-0.2-0.2-0.4-0.2-0.6h-4c-0.2,0.5-0.4,0.9-0.5,1.3s-0.3,0.7-0.4,1H270.1z
		 M273.7,95.9c-0.1,0.3-0.3,0.5-0.4,0.9c-0.1,0.3-0.3,0.7-0.4,1c-0.2,0.4-0.3,0.7-0.5,1.1c-0.2,0.4-0.3,0.8-0.5,1.1h3.5
		c-0.1-0.4-0.3-0.7-0.4-1.2c-0.2-0.4-0.3-0.8-0.5-1.2c-0.2-0.4-0.3-0.7-0.5-1C273.9,96.3,273.8,96.1,273.7,95.9z"/>
	<path d="M282.4,95.9c-0.4,0-0.8,0.1-1.2,0.2c-0.4,0.2-0.7,0.4-1,0.7c-0.3,0.3-0.5,0.6-0.7,1c-0.2,0.4-0.2,0.9-0.2,1.4
		c0,0.6,0.1,1.1,0.3,1.5s0.4,0.8,0.7,1s0.7,0.5,1.1,0.6c0.4,0.1,0.9,0.2,1.4,0.2c0.4,0,0.7,0,0.9,0s0.4-0.1,0.4-0.1v-2.7h-1.7
		c-0.1,0-0.2,0-0.3-0.1c-0.1-0.1-0.1-0.1-0.1-0.3c0-0.1,0-0.2,0-0.2c0-0.1,0-0.1,0.1-0.1h2.2c0.2,0,0.3,0,0.4,0.1
		c0.1,0.1,0.1,0.2,0.1,0.3v3.6c-0.1,0-0.3,0-0.7,0.1c-0.4,0.1-0.9,0.1-1.5,0.1c-0.6,0-1.2-0.1-1.7-0.3c-0.5-0.2-1-0.4-1.3-0.8
		s-0.7-0.7-0.9-1.2s-0.3-1.1-0.3-1.7c0-0.6,0.1-1.2,0.3-1.6c0.2-0.5,0.5-0.9,0.8-1.3s0.8-0.6,1.3-0.8s1-0.3,1.6-0.3
		c0.3,0,0.5,0,0.8,0.1s0.5,0.1,0.6,0.1c0.2,0.1,0.3,0.1,0.5,0.2s0.2,0.1,0.3,0.2c0.1,0.1,0.2,0.2,0.2,0.2c0,0.1,0,0.1,0,0.2
		c0,0.1,0,0.2-0.1,0.3c-0.1,0.1-0.2,0.2-0.2,0.2c-0.1-0.1-0.2-0.2-0.3-0.3s-0.3-0.2-0.5-0.2c-0.2-0.1-0.4-0.1-0.6-0.2
		C283,95.9,282.7,95.9,282.4,95.9z"/>
	<path d="M291.4,98.8c0.1,0,0.2,0,0.3,0.1c0.1,0.1,0.1,0.1,0.1,0.3c0,0.1,0,0.2,0,0.2c0,0.1,0,0.1-0.1,0.1H288v2.9h3.9v0.7h-4.6
		v-7.1c0-0.1,0-0.2,0.1-0.3s0.2-0.1,0.4-0.1h3.9c0.1,0,0.2,0,0.3,0.1c0.1,0.1,0.1,0.1,0.1,0.3c0,0.1,0,0.2,0,0.2
		c0,0.1,0,0.1-0.1,0.1H288v2.6H291.4z"/>
	<path d="M296.2,100c-0.4,0-0.7,0-0.9,0c-0.2,0-0.4,0-0.4-0.1v3.1h-0.7v-7.1c0-0.1,0-0.2,0.1-0.3c0.1-0.1,0.2-0.1,0.4-0.1h1.6
		c0.4,0,0.7,0,1,0.1c0.3,0.1,0.5,0.2,0.8,0.3c0.2,0.1,0.4,0.3,0.5,0.5c0.1,0.2,0.2,0.4,0.3,0.6c0.1,0.2,0.1,0.5,0.1,0.7
		c0,0.5-0.1,0.9-0.4,1.3c-0.3,0.4-0.6,0.6-1.1,0.8c0.2,0.2,0.4,0.5,0.6,0.8c0.2,0.3,0.4,0.6,0.6,0.9c0.2,0.3,0.4,0.6,0.5,0.9
		c0.2,0.3,0.3,0.5,0.4,0.7h-0.9c-0.1-0.2-0.2-0.4-0.3-0.6s-0.3-0.5-0.5-0.8c-0.2-0.3-0.4-0.6-0.6-0.9c-0.2-0.3-0.4-0.5-0.6-0.8
		c-0.1,0-0.2,0-0.2,0C296.4,100,296.3,100,296.2,100z M298.1,97.7c0-0.4-0.1-0.7-0.2-1c-0.2-0.3-0.4-0.4-0.8-0.5
		c-0.1,0-0.3-0.1-0.4-0.1c-0.2,0-0.3,0-0.5,0h-1.3v3.2c0,0,0.2,0,0.4,0.1c0.2,0,0.5,0,0.8,0c0.7,0,1.2-0.2,1.6-0.5
		C298,98.6,298.1,98.2,298.1,97.7z"/>
</g>
<g>
	
		<linearGradient id="SVGID_1_" gradientUnits="userSpaceOnUse" x1="-415.3756" y1="-341.8689" x2="-414.3756" y2="-341.8689" gradientTransform="matrix(441.2978 0 0 -441.2978 183262.5781 -150788.4062)">
		<stop  offset="0" style="stop-color:#B58BD3"/>
		<stop  offset="1" style="stop-color:#79EAEC"/>
	</linearGradient>
	<path class="st0" d="M107.4,56.6v13c0,0.8-0.3,1.6-0.9,2.3c-0.2,0.3-0.5,0.5-0.7,0.7l-6.2,4.8l6,4.7c0.1,0.1,0.2,0.2,0.3,0.3
		c0.9,0.7,1.5,1.7,1.5,2.8v13.6l5.4-4.2c0.4-0.3,0.7-0.6,0.9-0.9c0.7-0.8,1.2-1.8,1.2-2.8V64.5c0-1.4-0.7-2.6-1.9-3.5
		c-0.1-0.1-0.3-0.3-0.4-0.4L107.4,56.6 M49.8,56.4l-5.5,4.3c-1.5,1.2-2.2,2.8-2,4.4v25.8c0,1.3,0.6,2.4,1.6,3.3
		c0.2,0.2,0.3,0.3,0.5,0.4l5.3,4.1V85.6c-0.2-1.2,0.3-2.5,1.6-3.5l6.2-4.8l-6-4.7c-0.1-0.1-0.3-0.2-0.4-0.4
		c-0.8-0.7-1.3-1.6-1.3-2.6V56.4"/>
	
		<linearGradient id="SVGID_2_" gradientUnits="userSpaceOnUse" x1="-415.3756" y1="-341.7872" x2="-414.3756" y2="-341.7872" gradientTransform="matrix(441.2978 0 0 -441.2978 183262.5781 -150788.4062)">
		<stop  offset="0" style="stop-color:#7EDFF4"/>
		<stop  offset="2.036464e-02" style="stop-color:#7CE0F4"/>
		<stop  offset="1" style="stop-color:#16F9FA"/>
	</linearGradient>
	<path class="st1" d="M78.5,26.4c-1.4,0-2.8,0.4-3.9,1.2L51.4,45.7c-1.2,1-1.7,2.2-1.6,3.5v7.2l23.8-18.5c1.3-1,3.1-1.6,4.9-1.6
		c1.8,0,3.5,0.5,4.9,1.6l24.1,18.7v-7.9c0-1.1-0.6-2.1-1.5-2.8c-0.1-0.1-0.2-0.2-0.3-0.3L82.3,27.6C81.3,26.8,79.9,26.4,78.5,26.4"
		/>
	
		<linearGradient id="SVGID_3_" gradientUnits="userSpaceOnUse" x1="-415.3756" y1="-341.822" x2="-414.3756" y2="-341.822" gradientTransform="matrix(441.2978 0 0 -441.2978 183262.5781 -150788.4062)">
		<stop  offset="0" style="stop-color:#B8EDF9"/>
		<stop  offset="1" style="stop-color:#7FFCFC"/>
	</linearGradient>
	<path class="st2" d="M78.4,36.3c-1.8,0-3.5,0.5-4.9,1.6L49.8,56.4v13.2c0,1,0.5,1.9,1.3,2.6c0.1,0.1,0.3,0.2,0.4,0.4l6,4.7L74.6,64
		c1.1-0.8,2.5-1.2,3.9-1.2s2.8,0.4,3.9,1.2l17.2,13.4l6.2-4.8c0.3-0.2,0.5-0.5,0.7-0.7c0.6-0.6,0.9-1.4,0.9-2.3v-13L83.3,37.9
		C82,36.9,80.2,36.3,78.4,36.3"/>
	
		<linearGradient id="SVGID_4_" gradientUnits="userSpaceOnUse" x1="-415.3756" y1="-341.9503" x2="-414.3756" y2="-341.9503" gradientTransform="matrix(441.2978 0 0 -441.2978 183262.5781 -150788.4062)">
		<stop  offset="0" style="stop-color:#B84FE6"/>
		<stop  offset="1" style="stop-color:#7EDFF4"/>
	</linearGradient>
	<path class="st3" d="M49.8,98.7v7.3c0,1,0.5,1.9,1.3,2.6c0.1,0.1,0.3,0.2,0.4,0.4l23.2,18.1c1.1,0.8,2.5,1.2,3.9,1.2
		c1.4,0,2.8-0.4,3.9-1.2l23.2-18.1c0.3-0.2,0.5-0.5,0.7-0.7c0.6-0.6,0.9-1.4,0.9-2.3v-7.3l-23.9,18.6c-1.3,1-3.1,1.6-4.9,1.6
		s-3.5-0.5-4.9-1.6L49.8,98.7"/>
	
		<linearGradient id="SVGID_5_" gradientUnits="userSpaceOnUse" x1="-415.3756" y1="-341.9154" x2="-414.3756" y2="-341.9154" gradientTransform="matrix(441.2978 0 0 -441.2978 183262.5781 -150788.4062)">
		<stop  offset="0" style="stop-color:#D89FF1"/>
		<stop  offset="0.8849" style="stop-color:#BCE5F8"/>
		<stop  offset="1" style="stop-color:#B8EEF9"/>
	</linearGradient>
	<path class="st4" d="M57.5,77.3l-6.2,4.8c-1.2,1-1.7,2.2-1.6,3.5v13.1l23.9,18.6c1.3,1,3.1,1.6,4.9,1.6s3.5-0.5,4.9-1.6l23.9-18.6
		V85.1c0-1.1-0.6-2.1-1.5-2.8c-0.1-0.1-0.2-0.2-0.3-0.3l-6-4.7L82.5,90.7c-1.1,0.8-2.5,1.2-3.9,1.2c-1.4,0-2.8-0.4-3.9-1.2
		L57.5,77.3"/>
	
		<linearGradient id="SVGID_6_" gradientUnits="userSpaceOnUse" x1="-415.3756" y1="-341.8684" x2="-414.3756" y2="-341.8684" gradientTransform="matrix(441.2978 0 0 -441.2978 183262.5781 -150788.4062)">
		<stop  offset="0" style="stop-color:#D9F0FD"/>
		<stop  offset="1" style="stop-color:#BBFDFE"/>
	</linearGradient>
	<path class="st5" d="M78.5,62.8c-1.4,0-2.8,0.4-3.9,1.2L57.5,77.3l17.2,13.4c1.1,0.8,2.5,1.2,3.9,1.2c1.4,0,2.8-0.4,3.9-1.2
		l17.1-13.3L82.3,64C81.3,63.2,79.9,62.8,78.5,62.8"/>
</g>
</svg>
